<mxfile host="app.diagrams.net" agent="Mozilla/5.0 (Windows NT 10.0; Win64; x64) AppleWebKit/537.36 (KHTML, like Gecko) Chrome/133.0.0.0 Safari/537.36" version="26.0.16">
  <diagram name="PÃ¡gina-1" id="ZdjPoLmTb5axCQRt07be">
    <mxGraphModel dx="756" dy="432" grid="1" gridSize="10" guides="1" tooltips="1" connect="1" arrows="1" fold="1" page="1" pageScale="1" pageWidth="827" pageHeight="1169" math="0" shadow="0">
      <root>
        <mxCell id="0" />
        <mxCell id="1" parent="0" />
        <mxCell id="ceeONU46qWgSn5d-HRAT-10" value="clientes" style="swimlane;fontStyle=0;childLayout=stackLayout;horizontal=1;startSize=26;fillColor=#1ba1e2;horizontalStack=0;resizeParent=1;resizeParentMax=0;resizeLast=0;collapsible=1;marginBottom=0;whiteSpace=wrap;html=1;fontColor=#ffffff;strokeColor=#006EAF;" vertex="1" parent="1">
          <mxGeometry x="70" y="690" width="200" height="104" as="geometry" />
        </mxCell>
        <mxCell id="ceeONU46qWgSn5d-HRAT-11" value="id_cliente" style="text;strokeColor=none;fillColor=none;align=left;verticalAlign=top;spacingLeft=4;spacingRight=4;overflow=hidden;rotatable=0;points=[[0,0.5],[1,0.5]];portConstraint=eastwest;whiteSpace=wrap;html=1;" vertex="1" parent="ceeONU46qWgSn5d-HRAT-10">
          <mxGeometry y="26" width="200" height="26" as="geometry" />
        </mxCell>
        <mxCell id="ceeONU46qWgSn5d-HRAT-12" value="nome" style="text;strokeColor=none;fillColor=none;align=left;verticalAlign=top;spacingLeft=4;spacingRight=4;overflow=hidden;rotatable=0;points=[[0,0.5],[1,0.5]];portConstraint=eastwest;whiteSpace=wrap;html=1;" vertex="1" parent="ceeONU46qWgSn5d-HRAT-10">
          <mxGeometry y="52" width="200" height="26" as="geometry" />
        </mxCell>
        <mxCell id="ceeONU46qWgSn5d-HRAT-13" value="email" style="text;strokeColor=none;fillColor=none;align=left;verticalAlign=top;spacingLeft=4;spacingRight=4;overflow=hidden;rotatable=0;points=[[0,0.5],[1,0.5]];portConstraint=eastwest;whiteSpace=wrap;html=1;" vertex="1" parent="ceeONU46qWgSn5d-HRAT-10">
          <mxGeometry y="78" width="200" height="26" as="geometry" />
        </mxCell>
        <mxCell id="ceeONU46qWgSn5d-HRAT-14" value="pedidos" style="swimlane;fontStyle=0;childLayout=stackLayout;horizontal=1;startSize=26;fillColor=#1ba1e2;horizontalStack=0;resizeParent=1;resizeParentMax=0;resizeLast=0;collapsible=1;marginBottom=0;whiteSpace=wrap;html=1;fontColor=#ffffff;strokeColor=#006EAF;" vertex="1" parent="1">
          <mxGeometry x="310" y="560" width="200" height="196" as="geometry" />
        </mxCell>
        <mxCell id="ceeONU46qWgSn5d-HRAT-15" value="id_pedido" style="text;strokeColor=none;fillColor=none;align=left;verticalAlign=top;spacingLeft=4;spacingRight=4;overflow=hidden;rotatable=0;points=[[0,0.5],[1,0.5]];portConstraint=eastwest;whiteSpace=wrap;html=1;" vertex="1" parent="ceeONU46qWgSn5d-HRAT-14">
          <mxGeometry y="26" width="200" height="26" as="geometry" />
        </mxCell>
        <mxCell id="ceeONU46qWgSn5d-HRAT-16" value="id_clientes" style="text;strokeColor=none;fillColor=none;align=left;verticalAlign=top;spacingLeft=4;spacingRight=4;overflow=hidden;rotatable=0;points=[[0,0.5],[1,0.5]];portConstraint=eastwest;whiteSpace=wrap;html=1;" vertex="1" parent="ceeONU46qWgSn5d-HRAT-14">
          <mxGeometry y="52" width="200" height="48" as="geometry" />
        </mxCell>
        <mxCell id="ceeONU46qWgSn5d-HRAT-26" value="id_produto" style="text;strokeColor=none;fillColor=none;align=left;verticalAlign=top;spacingLeft=4;spacingRight=4;overflow=hidden;rotatable=0;points=[[0,0.5],[1,0.5]];portConstraint=eastwest;whiteSpace=wrap;html=1;" vertex="1" parent="ceeONU46qWgSn5d-HRAT-14">
          <mxGeometry y="100" width="200" height="48" as="geometry" />
        </mxCell>
        <mxCell id="ceeONU46qWgSn5d-HRAT-27" value="data" style="text;strokeColor=none;fillColor=none;align=left;verticalAlign=top;spacingLeft=4;spacingRight=4;overflow=hidden;rotatable=0;points=[[0,0.5],[1,0.5]];portConstraint=eastwest;whiteSpace=wrap;html=1;" vertex="1" parent="ceeONU46qWgSn5d-HRAT-14">
          <mxGeometry y="148" width="200" height="48" as="geometry" />
        </mxCell>
        <mxCell id="ceeONU46qWgSn5d-HRAT-18" value="produto" style="swimlane;fontStyle=0;childLayout=stackLayout;horizontal=1;startSize=26;fillColor=#1ba1e2;horizontalStack=0;resizeParent=1;resizeParentMax=0;resizeLast=0;collapsible=1;marginBottom=0;whiteSpace=wrap;html=1;fontColor=#ffffff;strokeColor=#006EAF;" vertex="1" parent="1">
          <mxGeometry x="540" y="690" width="140" height="130" as="geometry" />
        </mxCell>
        <mxCell id="ceeONU46qWgSn5d-HRAT-19" value="id_produto" style="text;strokeColor=none;fillColor=none;align=left;verticalAlign=top;spacingLeft=4;spacingRight=4;overflow=hidden;rotatable=0;points=[[0,0.5],[1,0.5]];portConstraint=eastwest;whiteSpace=wrap;html=1;" vertex="1" parent="ceeONU46qWgSn5d-HRAT-18">
          <mxGeometry y="26" width="140" height="26" as="geometry" />
        </mxCell>
        <mxCell id="ceeONU46qWgSn5d-HRAT-22" style="edgeStyle=orthogonalEdgeStyle;rounded=0;orthogonalLoop=1;jettySize=auto;html=1;exitX=1;exitY=0.5;exitDx=0;exitDy=0;" edge="1" parent="ceeONU46qWgSn5d-HRAT-18" source="ceeONU46qWgSn5d-HRAT-20">
          <mxGeometry relative="1" as="geometry">
            <mxPoint x="190" y="65" as="targetPoint" />
            <Array as="points">
              <mxPoint x="165" y="65" />
              <mxPoint x="165" y="66" />
            </Array>
          </mxGeometry>
        </mxCell>
        <mxCell id="ceeONU46qWgSn5d-HRAT-20" value="marca" style="text;strokeColor=none;fillColor=none;align=left;verticalAlign=top;spacingLeft=4;spacingRight=4;overflow=hidden;rotatable=0;points=[[0,0.5],[1,0.5]];portConstraint=eastwest;whiteSpace=wrap;html=1;" vertex="1" parent="ceeONU46qWgSn5d-HRAT-18">
          <mxGeometry y="52" width="140" height="26" as="geometry" />
        </mxCell>
        <mxCell id="ceeONU46qWgSn5d-HRAT-21" value="valor" style="text;strokeColor=none;fillColor=none;align=left;verticalAlign=top;spacingLeft=4;spacingRight=4;overflow=hidden;rotatable=0;points=[[0,0.5],[1,0.5]];portConstraint=eastwest;whiteSpace=wrap;html=1;" vertex="1" parent="ceeONU46qWgSn5d-HRAT-18">
          <mxGeometry y="78" width="140" height="26" as="geometry" />
        </mxCell>
        <mxCell id="ceeONU46qWgSn5d-HRAT-23" style="edgeStyle=orthogonalEdgeStyle;rounded=0;orthogonalLoop=1;jettySize=auto;html=1;entryX=1.019;entryY=0.051;entryDx=0;entryDy=0;entryPerimeter=0;" edge="1" parent="ceeONU46qWgSn5d-HRAT-18" source="ceeONU46qWgSn5d-HRAT-18" target="ceeONU46qWgSn5d-HRAT-20">
          <mxGeometry relative="1" as="geometry">
            <Array as="points">
              <mxPoint x="70" y="124" />
              <mxPoint x="160" y="124" />
              <mxPoint x="160" y="80" />
              <mxPoint x="143" y="80" />
            </Array>
          </mxGeometry>
        </mxCell>
        <mxCell id="ceeONU46qWgSn5d-HRAT-28" value="desc" style="text;strokeColor=none;fillColor=none;align=left;verticalAlign=top;spacingLeft=4;spacingRight=4;overflow=hidden;rotatable=0;points=[[0,0.5],[1,0.5]];portConstraint=eastwest;whiteSpace=wrap;html=1;" vertex="1" parent="ceeONU46qWgSn5d-HRAT-18">
          <mxGeometry y="104" width="140" height="26" as="geometry" />
        </mxCell>
        <mxCell id="ceeONU46qWgSn5d-HRAT-29" value="dispatch" style="html=1;verticalAlign=bottom;startArrow=oval;startFill=1;endArrow=block;startSize=8;curved=0;rounded=0;" edge="1" parent="1">
          <mxGeometry width="60" relative="1" as="geometry">
            <mxPoint x="270" y="750" as="sourcePoint" />
            <mxPoint x="310" y="750" as="targetPoint" />
          </mxGeometry>
        </mxCell>
        <mxCell id="ceeONU46qWgSn5d-HRAT-30" value="" style="line;strokeWidth=1;fillColor=none;align=left;verticalAlign=middle;spacingTop=-1;spacingLeft=3;spacingRight=3;rotatable=0;labelPosition=right;points=[];portConstraint=eastwest;strokeColor=inherit;" vertex="1" parent="1">
          <mxGeometry x="270" y="720" width="40" height="8" as="geometry" />
        </mxCell>
        <mxCell id="ceeONU46qWgSn5d-HRAT-31" value="" style="line;strokeWidth=1;fillColor=none;align=left;verticalAlign=middle;spacingTop=-1;spacingLeft=3;spacingRight=3;rotatable=0;labelPosition=right;points=[];portConstraint=eastwest;strokeColor=inherit;" vertex="1" parent="1">
          <mxGeometry x="510" y="738" width="30" height="8" as="geometry" />
        </mxCell>
        <mxCell id="ceeONU46qWgSn5d-HRAT-32" value="&lt;h1 style=&quot;margin-top: 0px;&quot;&gt;Projeto Loja&lt;/h1&gt;&lt;p&gt;Diagrama UML&lt;/p&gt;&lt;p&gt;Desenvolvido por: Gabriel s Aquino&lt;/p&gt;" style="text;html=1;whiteSpace=wrap;overflow=hidden;rounded=0;" vertex="1" parent="1">
          <mxGeometry x="70" y="530" width="180" height="120" as="geometry" />
        </mxCell>
      </root>
    </mxGraphModel>
  </diagram>
</mxfile>
